<svg id="svg" version="1.1" xmlns="http://www.w3.org/2000/svg" xmlns:xlink="http://www.w3.org/1999/xlink" width="400" height="400" viewBox="0, 0, 400,400"><g id="svgg"><path id="path0" d="M5.794 3.373 C 5.165 4.128,4.305 4.836,3.884 4.946 C 3.464 5.056,3.238 5.338,3.383 5.573 C 3.778 6.212,4.800 6.087,4.800 5.400 C 4.800 5.070,5.070 4.800,5.400 4.800 C 5.730 4.800,6.000 4.570,6.000 4.288 C 6.000 4.007,6.360 3.517,6.800 3.200 C 7.240 2.883,7.600 2.483,7.600 2.312 C 7.600 1.642,6.889 2.061,5.794 3.373 M14.400 6.539 C 9.985 7.615,2.400 13.180,2.400 15.343 C 2.400 15.650,2.152 16.107,1.850 16.359 C 1.547 16.610,1.185 17.532,1.045 18.408 C 0.905 19.283,0.613 20.000,0.395 20.000 C 0.136 20.000,0.000 60.268,0.000 137.200 C 0.000 219.485,0.126 254.400,0.424 254.400 C 0.657 254.400,34.341 220.935,75.277 180.033 C 121.964 133.384,149.910 105.744,150.253 105.876 C 150.576 106.000,150.800 105.822,150.800 105.443 C 150.800 105.089,150.980 104.800,151.200 104.800 C 151.420 104.800,151.600 104.541,151.600 104.225 C 151.600 103.316,153.633 101.395,155.600 100.445 L 157.400 99.576 201.031 99.688 L 244.661 99.800 246.518 101.200 C 247.540 101.970,248.381 102.825,248.388 103.100 C 248.394 103.375,248.576 103.600,248.791 103.600 C 250.577 103.600,251.856 117.026,250.200 118.400 C 249.870 118.674,249.603 119.191,249.606 119.549 C 249.611 120.058,249.686 120.084,249.950 119.666 C 250.958 118.078,251.099 123.384,250.129 126.386 C 249.389 128.676,246.140 132.400,244.882 132.400 C 244.485 132.400,243.977 132.583,243.754 132.806 C 242.911 133.649,239.086 133.478,238.623 132.577 C 238.322 131.991,238.201 139.186,238.203 157.577 C 238.206 185.792,238.022 183.341,240.406 187.000 C 240.836 187.660,241.382 188.646,241.619 189.192 C 241.856 189.737,242.174 190.277,242.325 190.392 C 242.674 190.656,243.464 191.910,244.094 193.200 C 244.363 193.750,244.812 194.344,245.092 194.520 C 245.371 194.696,245.600 195.088,245.600 195.391 C 245.600 195.695,245.825 196.188,246.100 196.488 C 246.730 197.176,247.463 198.314,248.103 199.598 C 248.522 200.439,249.821 202.504,251.627 205.200 C 251.848 205.530,252.248 206.190,252.515 206.666 C 253.136 207.775,255.591 211.769,256.496 213.143 C 256.878 213.724,257.317 214.470,257.471 214.800 C 257.625 215.130,258.313 216.210,259.000 217.200 C 259.687 218.190,260.375 219.270,260.529 219.600 C 260.683 219.930,261.122 220.676,261.504 221.257 C 261.887 221.838,262.830 223.343,263.600 224.600 C 264.370 225.857,265.313 227.362,265.696 227.943 C 266.078 228.524,266.517 229.270,266.671 229.600 C 266.825 229.930,267.547 231.053,268.275 232.096 C 269.004 233.139,269.600 234.161,269.600 234.367 C 269.600 234.574,269.825 234.988,270.100 235.288 C 270.822 236.076,271.533 237.219,272.198 238.663 C 272.518 239.358,272.920 239.988,273.090 240.063 C 273.261 240.139,273.846 241.055,274.392 242.100 C 274.937 243.145,275.504 244.000,275.653 244.000 C 275.801 244.000,276.119 244.495,276.360 245.100 C 276.601 245.705,277.517 247.280,278.395 248.600 C 279.273 249.920,280.175 251.360,280.400 251.800 C 280.625 252.240,281.514 253.680,282.375 255.000 C 284.356 258.035,286.690 262.637,287.041 264.200 C 287.189 264.860,287.510 265.653,287.755 265.961 C 288.516 266.922,288.594 275.728,287.855 277.210 C 287.282 278.358,287.284 278.556,287.870 279.451 C 288.566 280.513,288.420 285.597,287.667 286.534 C 287.461 286.791,287.164 287.630,287.007 288.400 C 286.850 289.170,286.469 290.199,286.161 290.686 C 285.852 291.173,285.600 291.835,285.600 292.157 C 285.600 292.479,285.373 292.981,285.095 293.271 C 284.818 293.562,284.369 294.250,284.098 294.800 C 283.202 296.620,282.285 297.837,279.600 300.770 C 278.150 302.354,274.483 304.956,272.400 305.879 C 270.489 306.726,265.272 308.416,264.599 308.406 C 263.765 308.394,179.811 392.771,180.235 393.195 C 180.519 393.479,212.959 393.576,283.425 393.505 L 386.200 393.400 388.800 392.123 C 393.539 389.796,398.800 383.843,398.800 380.809 C 398.800 380.350,399.070 379.871,399.400 379.745 C 400.480 379.330,400.291 22.146,399.211 21.803 C 398.622 21.616,398.356 21.057,398.162 19.601 C 398.018 18.513,397.659 17.555,397.352 17.437 C 397.048 17.320,396.800 16.866,396.800 16.426 C 396.800 15.531,391.691 10.210,390.455 9.818 C 390.025 9.681,389.454 9.306,389.187 8.985 C 388.920 8.663,388.283 8.400,387.771 8.400 C 387.259 8.400,386.684 8.122,386.494 7.783 C 385.857 6.644,19.001 5.417,14.400 6.539 M1.067 9.067 C 0.606 9.527,0.775 10.000,1.400 10.000 C 1.730 10.000,2.000 9.730,2.000 9.400 C 2.000 8.775,1.527 8.606,1.067 9.067 M149.850 107.650 C 149.527 109.266,149.598 115.508,149.955 116.786 C 150.106 117.329,150.237 115.214,150.245 112.086 C 150.261 106.005,150.236 105.720,149.850 107.650 M162.398 129.518 L 162.595 133.800 162.713 129.835 C 162.778 127.655,162.689 125.728,162.515 125.554 C 162.342 125.379,162.289 127.163,162.398 129.518 M212.262 131.664 C 211.832 141.610,211.945 188.719,212.400 189.000 C 212.665 189.164,212.800 178.537,212.800 157.424 C 212.800 139.921,212.738 125.600,212.662 125.600 C 212.587 125.600,212.407 128.329,212.262 131.664 M188.097 160.926 C 188.033 179.777,187.858 189.919,187.586 190.426 C 187.308 190.945,187.306 191.200,187.578 191.200 C 188.369 191.200,188.419 189.112,188.308 160.800 L 188.195 132.200 188.097 160.926 M160.898 185.755 C 159.161 188.659,159.241 189.126,161.014 186.434 C 161.792 185.253,162.376 184.129,162.312 183.936 C 162.248 183.744,161.611 184.562,160.898 185.755 M158.517 189.472 C 158.375 189.842,157.661 191.053,156.930 192.163 C 155.676 194.067,154.975 195.880,156.147 194.189 C 158.129 191.328,159.561 188.800,159.200 188.800 C 158.966 188.800,158.659 189.102,158.517 189.472 M155.000 195.506 C 154.542 195.842,153.816 196.950,153.102 198.400 C 152.831 198.950,152.382 199.638,152.105 199.929 C 151.827 200.219,151.600 200.637,151.600 200.857 C 151.600 201.077,151.330 201.527,151.000 201.857 C 150.670 202.187,150.400 202.637,150.400 202.857 C 150.400 203.421,151.356 202.399,152.032 201.112 C 152.344 200.517,153.267 198.944,154.083 197.615 C 154.899 196.287,155.529 195.203,155.483 195.206 C 155.437 195.209,155.220 195.344,155.000 195.506 M149.725 203.914 C 149.464 204.080,149.059 204.663,148.826 205.208 C 148.327 206.376,147.598 207.551,146.900 208.312 C 146.625 208.612,146.400 209.037,146.400 209.257 C 146.400 209.839,147.529 208.619,147.997 207.530 C 148.218 207.019,148.851 205.925,149.405 205.100 C 150.464 203.522,150.489 203.428,149.725 203.914 M144.828 211.820 C 144.153 212.821,143.600 213.796,143.600 213.987 C 143.600 214.177,143.454 214.393,143.276 214.467 C 143.098 214.540,142.333 215.654,141.576 216.943 C 140.819 218.232,139.930 219.704,139.600 220.214 C 137.746 223.082,135.600 226.792,135.600 227.127 C 135.600 227.340,135.330 227.618,135.000 227.745 C 134.670 227.871,134.400 228.145,134.400 228.353 C 134.400 228.560,133.770 229.687,133.000 230.856 C 132.230 232.025,131.600 233.211,131.600 233.491 C 131.600 233.771,131.430 234.000,131.222 234.000 C 130.870 234.000,130.413 234.697,129.124 237.200 C 128.841 237.750,128.382 238.438,128.105 238.729 C 127.827 239.019,127.600 239.514,127.600 239.829 C 127.600 240.143,127.430 240.400,127.222 240.400 C 126.870 240.400,126.413 241.097,125.124 243.600 C 124.841 244.150,124.382 244.838,124.105 245.129 C 123.827 245.419,123.600 245.837,123.600 246.057 C 123.600 246.277,123.330 246.727,123.000 247.057 C 122.670 247.387,122.400 247.837,122.400 248.057 C 122.400 248.614,123.349 247.608,124.032 246.329 C 124.611 245.243,126.916 241.451,128.000 239.800 C 128.330 239.297,129.230 237.857,130.000 236.600 C 130.770 235.343,131.713 233.838,132.096 233.257 C 132.478 232.676,132.917 231.930,133.071 231.600 C 133.225 231.270,133.947 230.147,134.675 229.104 C 135.404 228.061,136.000 227.113,136.000 226.996 C 136.000 226.880,136.491 226.023,137.092 225.092 C 137.692 224.161,138.367 223.100,138.592 222.734 C 140.748 219.217,141.894 217.369,142.400 216.595 C 143.649 214.683,146.353 210.000,146.208 210.000 C 146.125 210.000,145.504 210.819,144.828 211.820 M232.300 222.799 C 233.288 223.907,232.895 224.741,231.300 224.924 L 229.800 225.095 231.400 225.048 C 233.223 224.993,233.825 223.775,232.519 222.784 C 231.905 222.318,231.873 222.320,232.300 222.799 M172.800 224.400 C 172.250 224.576,184.670 224.726,200.400 224.732 C 216.690 224.739,228.656 224.596,228.200 224.400 C 227.191 223.966,174.154 223.966,172.800 224.400 M169.100 225.082 C 169.595 225.178,170.405 225.178,170.900 225.082 C 171.395 224.987,170.990 224.909,170.000 224.909 C 169.010 224.909,168.605 224.987,169.100 225.082 M121.523 249.500 C 121.192 249.885,120.802 250.470,120.656 250.800 C 120.511 251.130,120.078 251.882,119.696 252.471 C 118.105 254.921,115.600 259.158,115.600 259.399 C 115.600 259.541,115.330 259.927,115.000 260.257 C 114.670 260.587,114.401 261.159,114.403 261.529 C 114.404 261.982,114.664 261.810,115.200 261.000 C 115.637 260.340,115.996 259.646,115.997 259.458 C 115.999 259.270,116.540 258.316,117.200 257.338 C 117.860 256.360,118.400 255.402,118.400 255.209 C 118.400 255.015,118.636 254.619,118.925 254.329 C 119.475 253.774,122.467 248.800,122.249 248.800 C 122.180 248.800,121.853 249.115,121.523 249.500 M113.668 263.240 C 112.490 265.127,111.529 274.489,112.341 276.170 C 112.561 276.626,112.845 277.270,112.973 277.600 C 113.100 277.930,113.109 277.660,112.992 277.000 C 112.183 272.404,112.744 265.313,114.041 263.750 C 114.280 263.462,114.413 263.039,114.337 262.810 C 114.260 262.580,113.959 262.774,113.668 263.240 M278.975 292.900 L 277.800 294.200 279.100 293.025 C 279.815 292.379,280.400 291.794,280.400 291.725 C 280.400 291.416,280.070 291.688,278.975 292.900 M122.000 293.400 C 122.746 294.170,123.447 294.800,123.557 294.800 C 123.667 294.800,123.146 294.170,122.400 293.400 C 121.654 292.630,120.953 292.000,120.843 292.000 C 120.733 292.000,121.254 292.630,122.000 293.400 " stroke="none" fill="#5882c5" fill-rule="evenodd"></path><path id="path1" d="M156.048 101.224 C 151.811 103.499,150.679 106.056,150.868 112.921 C 151.081 120.650,152.976 123.262,158.962 124.079 C 160.743 124.322,162.428 124.699,162.707 124.916 C 163.422 125.471,163.242 185.080,162.525 185.523 C 162.264 185.684,161.857 186.263,161.621 186.808 C 161.385 187.354,160.475 188.880,159.598 190.200 C 158.722 191.520,157.881 192.870,157.730 193.200 C 157.443 193.824,155.955 196.051,155.592 196.400 C 155.477 196.510,155.160 197.050,154.888 197.600 C 154.615 198.150,154.078 199.079,153.696 199.665 C 153.313 200.250,152.100 202.201,151.000 204.000 C 149.900 205.799,148.730 207.685,148.400 208.192 C 147.250 209.958,144.996 213.671,144.432 214.729 C 144.119 215.314,143.669 215.988,143.432 216.226 C 143.194 216.464,142.640 217.366,142.200 218.229 C 141.760 219.093,141.261 219.861,141.090 219.937 C 140.920 220.012,140.518 220.642,140.198 221.337 C 139.533 222.781,138.822 223.924,138.100 224.712 C 137.825 225.012,137.600 225.505,137.600 225.809 C 137.600 226.112,137.371 226.504,137.092 226.680 C 136.812 226.856,136.360 227.450,136.087 228.000 C 135.815 228.550,135.235 229.540,134.800 230.200 C 134.365 230.860,133.884 231.670,133.731 232.000 C 133.442 232.626,131.953 234.853,131.592 235.200 C 131.477 235.310,131.160 235.850,130.888 236.400 C 130.615 236.950,130.078 237.876,129.696 238.457 C 129.313 239.038,128.370 240.543,127.600 241.800 C 126.830 243.057,125.894 244.562,125.519 245.143 C 125.145 245.724,124.605 246.591,124.319 247.068 C 123.332 248.719,120.998 252.490,120.400 253.400 C 117.333 258.071,115.612 261.342,114.190 265.200 C 113.291 267.640,113.255 277.025,114.137 278.795 C 114.466 279.453,114.861 280.569,115.016 281.273 C 115.171 281.978,115.546 282.803,115.849 283.106 C 116.152 283.409,116.400 283.982,116.400 284.380 C 116.400 284.777,116.670 285.326,117.000 285.600 C 117.330 285.874,117.600 286.263,117.600 286.465 C 117.600 286.805,118.553 288.259,120.000 290.127 C 120.908 291.299,124.148 294.400,124.464 294.400 C 124.618 294.400,124.981 294.630,125.271 294.911 C 126.417 296.019,131.899 298.304,133.969 298.536 C 135.163 298.669,136.324 298.964,136.549 299.189 C 137.288 299.928,262.762 299.742,264.538 299.000 C 265.328 298.670,266.627 298.400,267.425 298.400 C 268.224 298.400,269.354 298.138,269.938 297.818 C 270.522 297.498,272.035 296.765,273.300 296.189 C 274.565 295.613,275.600 294.975,275.600 294.771 C 275.600 294.567,275.825 294.397,276.100 294.394 C 277.427 294.379,282.573 288.006,284.331 284.200 C 284.839 283.100,285.513 281.722,285.827 281.138 C 286.142 280.554,286.400 279.613,286.400 279.046 C 286.400 278.480,286.684 277.307,287.030 276.441 C 288.537 272.676,285.923 260.179,283.173 258.000 C 283.034 257.890,282.038 256.298,280.960 254.462 C 279.882 252.626,278.730 250.710,278.400 250.205 C 278.070 249.700,277.170 248.257,276.400 247.000 C 275.630 245.743,274.730 244.303,274.400 243.800 C 274.070 243.297,273.170 241.857,272.400 240.600 C 271.630 239.343,270.688 237.838,270.306 237.257 C 269.924 236.676,269.426 235.840,269.200 235.400 C 268.973 234.960,267.802 233.070,266.598 231.200 C 265.394 229.330,264.186 227.350,263.913 226.800 C 263.640 226.250,263.307 225.710,263.174 225.600 C 262.948 225.414,261.710 223.439,259.800 220.220 C 258.588 218.178,255.079 212.451,254.400 211.408 C 254.070 210.901,253.170 209.457,252.400 208.200 C 251.630 206.943,250.730 205.503,250.400 205.000 C 250.070 204.497,249.170 203.057,248.400 201.800 C 247.630 200.543,246.730 199.097,246.400 198.588 C 245.343 196.956,240.621 189.208,240.000 188.085 C 239.670 187.488,239.300 186.910,239.179 186.800 C 239.057 186.690,238.562 185.949,238.079 185.153 L 237.200 183.706 237.206 154.753 C 237.209 138.829,237.368 125.554,237.559 125.253 C 237.757 124.940,239.340 124.492,241.253 124.207 C 248.047 123.194,250.500 119.318,249.889 110.554 C 249.512 105.124,248.364 103.089,244.615 101.199 C 242.255 100.009,158.267 100.033,156.048 101.224 M212.971 125.029 C 213.532 125.590,213.600 129.130,213.600 157.996 L 213.600 190.334 214.618 192.267 C 215.178 193.330,215.943 194.676,216.318 195.257 C 216.693 195.838,217.630 197.343,218.400 198.600 C 219.170 199.857,220.070 201.301,220.400 201.808 C 221.426 203.383,224.969 209.183,225.600 210.319 C 225.930 210.914,226.335 211.460,226.500 211.533 C 226.665 211.607,226.800 211.894,226.800 212.172 C 226.800 212.450,227.160 213.093,227.600 213.600 C 228.040 214.107,228.400 214.756,228.400 215.041 C 228.400 215.327,228.625 215.704,228.900 215.880 C 229.175 216.056,229.846 217.055,230.392 218.100 C 230.937 219.145,231.504 220.000,231.653 220.000 C 231.801 220.000,232.127 220.495,232.377 221.100 C 232.627 221.705,233.096 222.677,233.419 223.260 C 234.792 225.742,236.798 225.600,200.437 225.600 C 176.540 225.600,167.236 225.476,166.912 225.152 C 166.509 224.749,167.548 221.949,168.378 221.200 C 168.637 220.967,169.510 219.469,170.303 217.900 C 170.609 217.295,171.025 216.800,171.229 216.800 C 171.433 216.800,171.600 216.571,171.600 216.291 C 171.600 216.011,172.230 214.825,173.000 213.656 C 173.770 212.487,174.400 211.360,174.400 211.153 C 174.400 210.945,174.670 210.671,175.000 210.545 C 175.330 210.418,175.600 210.056,175.600 209.741 C 175.600 209.426,175.938 208.680,176.351 208.084 C 178.197 205.421,179.543 203.210,179.788 202.438 C 179.934 201.977,180.192 201.600,180.362 201.600 C 180.531 201.600,181.170 200.610,181.782 199.400 C 182.394 198.190,183.010 197.200,183.150 197.200 C 183.290 197.200,183.627 196.705,183.898 196.100 C 184.170 195.495,184.791 194.370,185.280 193.600 C 187.393 190.268,187.352 190.956,187.485 157.035 C 187.573 134.655,187.739 125.315,188.054 124.935 C 188.770 124.073,212.103 124.160,212.971 125.029 " stroke="none" fill="#f1f2f2" fill-rule="evenodd"></path><path id="path2" d="M75.291 180.018 C 34.348 220.928,0.657 254.400,0.424 254.400 C -0.330 254.400,-0.155 379.902,0.600 380.657 C 0.930 380.987,1.200 381.685,1.200 382.209 C 1.200 384.489,6.757 390.475,10.602 392.336 C 15.142 394.534,13.455 394.498,97.830 394.185 C 185.928 393.858,179.428 393.582,175.200 397.477 C 174.100 398.490,173.200 399.472,173.200 399.660 C 173.200 399.847,221.350 400.000,280.200 400.000 C 351.267 400.000,387.200 399.866,387.200 399.600 C 387.200 399.380,388.016 399.200,389.013 399.200 C 390.255 399.200,390.898 399.011,391.055 398.600 C 391.182 398.270,391.515 398.000,391.796 398.000 C 392.077 398.000,392.407 397.617,392.529 397.148 C 392.673 396.599,392.964 396.377,393.347 396.524 C 394.016 396.781,394.955 395.888,394.497 395.430 C 394.333 395.267,394.380 395.177,394.600 395.230 C 395.295 395.398,396.400 394.737,396.400 394.153 C 396.400 393.845,396.760 393.284,397.200 392.907 C 397.640 392.530,398.000 392.011,398.000 391.754 C 398.000 391.496,398.270 391.182,398.600 391.055 C 398.951 390.921,399.200 390.321,399.200 389.613 C 399.200 388.946,399.380 388.400,399.600 388.400 C 399.843 388.400,400.000 386.656,400.000 383.967 C 400.000 379.503,399.385 378.080,398.765 381.112 C 398.010 384.803,393.454 389.838,388.800 392.123 L 386.200 393.400 283.425 393.505 C 212.959 393.576,180.519 393.479,180.235 393.195 C 179.811 392.771,263.765 308.394,264.599 308.406 C 265.272 308.416,270.489 306.726,272.400 305.879 C 274.483 304.956,278.150 302.354,279.600 300.770 C 282.285 297.837,283.202 296.620,284.098 294.800 C 284.369 294.250,284.818 293.562,285.095 293.271 C 285.373 292.981,285.600 292.479,285.600 292.157 C 285.600 291.835,285.852 291.173,286.161 290.686 C 286.469 290.199,286.850 289.170,287.007 288.400 C 287.164 287.630,287.465 286.786,287.675 286.524 C 288.382 285.645,288.541 280.288,287.886 279.423 C 287.326 278.682,287.284 278.711,287.018 280.023 C 286.155 284.279,278.980 294.800,276.941 294.800 C 276.741 294.800,276.270 295.160,275.893 295.600 C 275.364 296.218,275.334 296.400,275.761 296.400 C 276.065 296.400,276.418 296.130,276.545 295.800 C 276.671 295.470,277.070 295.200,277.430 295.200 C 278.316 295.200,283.200 290.070,283.200 289.140 C 283.200 288.733,283.470 288.400,283.800 288.400 C 284.130 288.400,284.400 288.154,284.400 287.854 C 284.400 287.554,284.738 286.878,285.152 286.352 C 285.565 285.827,286.007 285.037,286.135 284.598 C 286.262 284.159,286.311 284.871,286.243 286.180 C 286.176 287.489,285.919 288.627,285.673 288.709 C 285.427 288.791,285.111 289.469,284.971 290.215 C 284.831 290.961,284.465 291.780,284.158 292.035 C 283.851 292.290,283.600 292.926,283.600 293.449 C 283.600 293.995,283.363 294.400,283.043 294.400 C 282.737 294.400,282.384 294.805,282.258 295.300 C 282.132 295.795,281.483 296.796,280.815 297.525 C 280.147 298.253,279.600 298.935,279.600 299.041 C 279.600 299.416,276.187 302.400,275.500 302.625 C 275.115 302.751,274.800 303.002,274.800 303.184 C 274.800 303.365,274.350 303.626,273.800 303.764 C 273.250 303.902,272.800 304.192,272.800 304.408 C 272.800 304.623,272.395 304.801,271.900 304.803 C 271.405 304.804,270.460 305.163,269.800 305.600 C 269.140 306.037,268.145 306.396,267.589 306.397 C 267.033 306.399,266.223 306.647,265.789 306.949 C 264.376 307.932,263.269 307.954,202.200 308.186 C 132.574 308.451,134.372 308.522,127.664 305.256 C 123.051 303.011,115.600 295.183,115.600 292.582 C 115.600 292.299,115.453 292.007,115.272 291.933 C 114.285 291.532,112.373 283.527,112.470 280.200 C 112.528 278.218,112.566 278.096,112.693 279.498 C 112.802 280.713,113.084 281.324,113.684 281.645 C 114.422 282.040,114.484 282.005,114.203 281.347 C 114.028 280.936,113.625 279.790,113.306 278.800 C 112.987 277.810,112.550 276.626,112.333 276.170 C 111.508 274.428,112.504 265.081,113.724 263.130 C 114.043 262.618,114.420 261.705,114.560 261.100 C 114.700 260.495,114.992 260.000,115.208 260.000 C 115.423 260.000,115.600 259.806,115.600 259.570 C 115.600 259.191,117.701 255.547,119.694 252.471 C 120.076 251.882,120.552 251.033,120.752 250.584 C 120.953 250.135,121.388 249.542,121.719 249.267 C 122.050 248.992,122.433 248.325,122.568 247.784 C 122.704 247.243,122.992 246.800,123.208 246.800 C 123.423 246.800,123.600 246.543,123.600 246.229 C 123.600 245.914,123.827 245.419,124.105 245.129 C 124.382 244.838,124.841 244.150,125.124 243.600 C 126.413 241.097,126.870 240.400,127.222 240.400 C 127.430 240.400,127.600 240.143,127.600 239.829 C 127.600 239.514,127.827 239.019,128.105 238.729 C 128.382 238.438,128.841 237.750,129.124 237.200 C 130.413 234.697,130.870 234.000,131.222 234.000 C 131.430 234.000,131.600 233.771,131.600 233.491 C 131.600 233.211,132.230 232.025,133.000 230.856 C 133.770 229.687,134.400 228.560,134.400 228.353 C 134.400 228.145,134.670 227.871,135.000 227.745 C 135.330 227.618,135.600 227.340,135.600 227.127 C 135.600 226.792,137.746 223.082,139.600 220.214 C 139.930 219.704,140.819 218.232,141.576 216.943 C 142.333 215.654,143.098 214.540,143.276 214.467 C 143.454 214.393,143.600 214.166,143.600 213.963 C 143.600 213.759,144.230 212.695,145.000 211.600 C 145.770 210.505,146.400 209.439,146.400 209.233 C 146.400 209.026,146.625 208.612,146.900 208.312 C 147.660 207.482,148.365 206.319,148.845 205.100 C 149.083 204.495,149.450 204.000,149.660 204.000 C 149.870 204.000,150.230 203.460,150.460 202.800 C 150.690 202.140,151.041 201.600,151.239 201.600 C 151.438 201.600,151.600 201.343,151.600 201.029 C 151.600 200.714,151.827 200.219,152.105 199.929 C 152.382 199.638,152.831 198.950,153.102 198.400 C 153.881 196.817,154.560 195.826,155.100 195.480 C 155.375 195.304,155.600 194.940,155.600 194.671 C 155.600 194.402,156.230 193.225,157.000 192.056 C 157.770 190.887,158.400 189.760,158.400 189.553 C 158.400 189.345,158.670 189.071,159.000 188.945 C 159.330 188.818,159.600 188.532,159.600 188.310 C 159.600 188.087,160.230 186.868,161.000 185.600 L 162.400 183.295 162.368 157.748 C 162.351 143.696,162.246 132.425,162.135 132.700 C 161.650 133.903,156.093 132.745,153.972 131.000 C 151.031 128.580,149.048 121.610,151.100 120.905 C 151.375 120.811,151.600 121.003,151.600 121.333 C 151.600 122.008,153.888 123.854,156.000 124.881 C 157.392 125.558,162.496 126.073,162.139 125.500 C 162.037 125.335,161.052 125.200,159.952 125.200 C 157.449 125.200,154.034 123.655,152.612 121.880 C 152.049 121.176,151.366 120.337,151.094 120.015 C 149.823 118.510,149.100 110.337,149.971 107.303 C 150.174 106.592,150.205 105.927,150.038 105.823 C 149.871 105.720,116.235 139.108,75.291 180.018 M249.805 119.984 C 249.032 122.420,244.817 124.923,240.800 125.330 C 240.030 125.408,240.615 125.501,242.100 125.536 C 243.676 125.573,244.800 125.433,244.800 125.200 C 244.800 124.468,247.127 124.745,247.324 125.500 C 247.498 126.167,247.509 126.167,247.554 125.500 C 247.647 124.091,248.800 124.738,248.800 126.200 C 248.800 127.178,248.619 127.600,248.200 127.600 C 247.870 127.600,247.600 127.870,247.600 128.200 C 247.600 128.530,247.349 128.800,247.043 128.800 C 246.736 128.800,246.382 129.070,246.255 129.400 C 246.129 129.730,245.749 130.000,245.413 130.000 C 245.067 130.000,244.800 130.348,244.800 130.800 C 244.800 131.524,244.533 131.600,242.008 131.600 C 238.797 131.600,238.601 131.353,238.860 127.615 C 238.945 126.390,238.843 125.651,238.600 125.732 C 237.976 125.938,237.913 131.244,238.520 132.400 C 239.081 133.469,242.803 133.757,243.754 132.806 C 243.977 132.583,244.485 132.400,244.882 132.400 C 247.325 132.400,250.806 126.426,250.794 122.254 C 250.787 119.833,250.246 118.593,249.805 119.984 M188.480 125.680 C 188.172 125.988,188.027 127.316,188.075 129.380 L 188.149 132.600 188.375 129.200 L 188.600 125.800 200.200 125.800 L 211.800 125.800 211.924 128.200 C 211.993 129.520,211.939 131.190,211.804 131.912 L 211.559 133.224 199.979 133.112 L 188.400 133.000 188.400 161.671 C 188.400 184.736,188.298 190.446,187.877 190.871 C 187.590 191.162,186.832 192.435,186.194 193.700 C 185.555 194.965,184.908 196.000,184.756 196.000 C 184.603 196.000,184.281 196.495,184.040 197.100 C 183.799 197.705,182.889 199.317,182.017 200.681 C 181.145 202.046,180.650 203.071,180.916 202.960 C 181.182 202.849,181.835 201.867,182.366 200.779 C 182.897 199.691,183.470 198.800,183.639 198.800 C 183.808 198.800,184.071 198.405,184.225 197.923 C 184.378 197.440,185.110 196.182,185.852 195.127 C 186.593 194.072,187.200 193.026,187.200 192.804 C 187.200 192.582,187.380 192.400,187.600 192.400 C 188.194 192.400,188.087 197.285,187.459 198.851 C 186.598 200.999,186.432 201.339,185.696 202.458 C 185.313 203.039,184.010 205.173,182.800 207.200 C 181.590 209.227,180.330 211.300,180.000 211.807 C 179.670 212.314,178.500 214.201,177.400 216.000 C 176.300 217.799,175.088 219.750,174.706 220.335 C 174.324 220.921,173.838 221.794,173.625 222.276 C 173.102 223.460,171.974 224.000,170.026 224.000 C 168.462 224.000,167.771 223.236,168.775 222.615 C 168.982 222.488,169.747 221.378,170.475 220.148 C 171.204 218.919,172.070 217.503,172.400 217.000 C 172.730 216.497,173.630 215.057,174.400 213.800 C 175.170 212.543,176.113 211.038,176.496 210.457 C 176.878 209.876,177.415 208.950,177.688 208.400 C 177.960 207.850,178.287 207.310,178.413 207.200 C 178.801 206.862,180.400 204.124,180.400 203.799 C 180.400 203.434,179.054 205.140,178.664 206.000 C 178.514 206.330,178.078 207.076,177.696 207.657 C 177.313 208.238,176.370 209.743,175.600 211.000 C 174.830 212.257,173.930 213.693,173.600 214.191 C 173.270 214.689,172.334 216.245,171.519 217.648 C 170.705 219.052,169.580 220.820,169.019 221.578 C 167.090 224.186,167.528 224.968,170.700 224.576 C 174.103 224.156,226.926 224.163,230.300 224.584 C 233.106 224.934,233.441 224.510,232.071 222.335 C 230.520 219.875,227.354 214.704,226.779 213.692 C 225.199 210.917,223.600 208.704,223.600 209.293 C 223.600 209.650,223.825 210.188,224.100 210.488 C 224.741 211.187,225.476 212.334,226.094 213.600 C 226.363 214.150,226.812 214.744,227.092 214.920 C 227.371 215.096,227.600 215.469,227.600 215.749 C 227.600 216.030,228.230 217.145,229.000 218.228 C 229.770 219.311,230.400 220.414,230.400 220.679 C 230.400 220.944,230.656 221.304,230.968 221.480 C 232.617 222.408,232.161 224.000,230.246 224.000 L 228.405 224.000 226.280 220.700 C 225.112 218.885,224.028 217.130,223.873 216.800 C 223.718 216.470,222.619 214.670,221.431 212.800 C 214.215 201.440,212.833 198.602,212.810 195.100 C 212.798 193.368,213.761 193.008,214.414 194.500 C 214.631 194.995,215.525 196.480,216.400 197.800 C 217.275 199.120,218.169 200.605,218.386 201.100 C 218.603 201.595,218.969 202.000,219.199 202.000 C 219.450 202.000,219.393 201.638,219.059 201.100 C 216.958 197.723,214.606 194.038,213.977 193.140 C 213.569 192.557,213.123 191.567,212.987 190.940 C 212.850 190.313,212.553 189.417,212.327 188.948 C 212.053 188.379,211.963 177.699,212.058 156.852 C 212.175 131.104,212.106 125.573,211.667 125.404 C 210.460 124.941,188.963 125.197,188.480 125.680 M219.600 202.860 C 219.600 203.213,219.870 203.726,220.200 204.000 C 220.530 204.274,220.800 204.718,220.800 204.987 C 220.800 205.256,221.160 205.802,221.600 206.200 C 222.747 207.238,222.594 206.765,221.000 204.344 C 220.230 203.175,219.600 202.507,219.600 202.860 M114.406 283.076 C 114.403 283.558,114.592 284.071,114.827 284.216 C 115.482 284.621,115.517 284.298,114.939 283.200 C 114.433 282.241,114.412 282.236,114.406 283.076 M115.606 285.209 C 115.600 285.818,117.971 289.666,119.051 290.800 C 119.365 291.130,120.031 291.850,120.531 292.400 C 121.031 292.950,121.881 293.760,122.420 294.200 C 123.167 294.810,120.298 291.409,119.215 290.400 C 118.873 290.082,117.374 287.859,117.057 287.200 C 116.254 285.531,115.611 284.649,115.606 285.209 M123.839 295.356 C 123.961 295.676,124.344 296.046,124.688 296.178 C 125.663 296.552,125.614 296.269,124.568 295.487 C 123.851 294.950,123.670 294.918,123.839 295.356 M273.771 296.991 C 273.094 297.503,273.083 297.576,273.676 297.587 C 274.048 297.594,274.471 297.408,274.616 297.173 C 275.052 296.468,274.593 296.370,273.771 296.991 M128.624 298.187 C 129.051 298.510,129.670 298.774,130.000 298.773 C 130.348 298.772,130.180 298.532,129.600 298.200 C 128.285 297.448,127.636 297.440,128.624 298.187 M271.200 298.200 C 270.620 298.532,270.452 298.772,270.800 298.773 C 271.130 298.774,271.749 298.510,272.176 298.187 C 273.164 297.440,272.515 297.448,271.200 298.200 M131.400 299.089 C 131.840 299.198,132.453 299.492,132.761 299.743 C 133.700 300.507,265.653 300.594,267.330 299.832 C 268.028 299.514,268.960 299.173,269.400 299.074 C 270.157 298.903,270.154 298.890,269.350 298.846 C 268.883 298.821,267.735 299.070,266.800 299.400 C 265.315 299.924,256.866 300.000,200.200 300.000 C 143.534 300.000,135.085 299.924,133.600 299.400 C 132.665 299.070,131.607 298.821,131.250 298.846 C 130.797 298.879,130.842 298.952,131.400 299.089 M0.000 386.995 C 0.000 389.717,0.498 390.800,1.748 390.800 C 2.665 390.800,2.896 390.120,2.321 389.108 C 2.038 388.609,1.625 387.405,1.403 386.432 C 0.751 383.574,0.000 383.876,0.000 386.995 M2.178 392.470 C 1.992 393.056,2.113 393.493,2.551 393.814 C 2.908 394.075,3.200 394.493,3.200 394.744 C 3.200 394.995,3.560 395.200,4.000 395.200 C 4.533 395.200,4.800 395.467,4.800 396.000 C 4.800 396.444,5.067 396.800,5.400 396.800 C 5.730 396.800,6.000 397.070,6.000 397.400 C 6.000 397.819,6.422 398.000,7.400 398.000 C 8.378 398.000,8.800 398.181,8.800 398.600 C 8.800 399.019,9.222 399.200,10.200 399.200 C 11.936 399.200,12.238 397.847,10.594 397.434 C 9.384 397.130,8.495 396.460,5.646 393.700 C 3.269 391.397,2.594 391.158,2.178 392.470 M13.067 399.067 C 12.416 399.717,12.941 400.000,14.800 400.000 C 16.755 400.000,17.430 399.527,16.167 399.043 C 15.323 398.719,13.400 398.733,13.067 399.067 " stroke="none" fill="#3d6499" fill-rule="evenodd"></path><path id="path3" d="M150.535 121.426 C 148.602 126.461,154.081 133.055,160.292 133.169 C 162.321 133.206,162.502 132.799,162.320 128.592 L 162.200 125.800 159.800 125.691 C 156.594 125.546,151.600 122.912,151.600 121.366 C 151.600 120.602,150.834 120.645,150.535 121.426 M244.800 125.182 C 244.800 125.393,243.495 125.618,241.900 125.682 L 239.000 125.800 238.875 127.773 C 238.645 131.401,238.808 131.600,242.008 131.600 C 244.533 131.600,244.800 131.524,244.800 130.800 C 244.800 130.348,245.067 130.000,245.413 130.000 C 245.749 130.000,246.129 129.730,246.255 129.400 C 246.382 129.070,246.736 128.800,247.043 128.800 C 247.349 128.800,247.600 128.530,247.600 128.200 C 247.600 127.870,247.870 127.600,248.200 127.600 C 248.619 127.600,248.800 127.178,248.800 126.200 C 248.800 124.706,247.819 124.187,247.476 125.500 C 247.302 126.167,247.291 126.167,247.246 125.500 C 247.197 124.751,244.800 124.439,244.800 125.182 M188.572 126.129 C 188.458 126.427,188.417 128.095,188.482 129.835 L 188.600 133.000 200.081 133.106 L 211.561 133.212 211.805 131.906 C 211.939 131.188,211.993 129.520,211.924 128.200 L 211.800 125.800 200.290 125.694 C 190.907 125.607,188.741 125.688,188.572 126.129 M187.200 192.804 C 187.200 193.026,186.593 194.072,185.852 195.127 C 185.110 196.182,184.378 197.440,184.225 197.923 C 184.071 198.405,183.819 198.800,183.665 198.800 C 183.510 198.800,182.937 199.655,182.392 200.700 C 181.846 201.745,181.271 202.697,181.113 202.815 C 180.956 202.934,180.352 203.924,179.772 205.015 C 179.193 206.107,178.598 207.090,178.451 207.200 C 178.304 207.310,177.960 207.850,177.688 208.400 C 177.415 208.950,176.878 209.876,176.496 210.457 C 176.113 211.038,175.170 212.543,174.400 213.800 C 173.630 215.057,172.730 216.497,172.400 217.000 C 172.070 217.503,171.204 218.919,170.475 220.148 C 169.747 221.378,168.982 222.488,168.775 222.615 C 167.771 223.236,168.462 224.000,170.026 224.000 C 171.974 224.000,173.102 223.460,173.625 222.276 C 173.838 221.794,174.324 220.921,174.706 220.335 C 175.088 219.750,176.300 217.799,177.400 216.000 C 178.500 214.201,179.670 212.314,180.000 211.807 C 180.330 211.300,181.590 209.227,182.800 207.200 C 184.010 205.173,185.313 203.039,185.696 202.458 C 186.432 201.339,186.598 200.999,187.459 198.851 C 188.087 197.285,188.194 192.400,187.600 192.400 C 187.380 192.400,187.200 192.582,187.200 192.804 M212.810 195.100 C 212.833 198.602,214.215 201.440,221.431 212.800 C 222.619 214.670,223.718 216.470,223.873 216.800 C 224.028 217.130,225.112 218.885,226.280 220.700 L 228.405 224.000 230.246 224.000 C 232.161 224.000,232.617 222.408,230.968 221.480 C 230.656 221.304,230.400 220.944,230.400 220.679 C 230.400 220.414,229.770 219.311,229.000 218.228 C 228.230 217.145,227.600 216.030,227.600 215.749 C 227.600 215.469,227.371 215.096,227.092 214.920 C 226.812 214.744,226.363 214.150,226.094 213.600 C 225.476 212.334,224.741 211.187,224.100 210.488 C 223.825 210.188,223.600 209.615,223.600 209.214 C 223.600 208.813,223.330 208.382,223.000 208.255 C 222.670 208.129,222.400 207.777,222.400 207.475 C 222.400 207.172,222.040 206.598,221.600 206.200 C 221.160 205.802,220.800 205.256,220.800 204.987 C 220.800 204.718,220.530 204.274,220.200 204.000 C 219.870 203.726,219.600 203.164,219.600 202.751 C 219.600 202.338,219.416 202.000,219.190 202.000 C 218.965 202.000,218.603 201.595,218.386 201.100 C 218.169 200.605,217.275 199.120,216.400 197.800 C 215.525 196.480,214.631 194.995,214.414 194.500 C 213.761 193.008,212.798 193.368,212.810 195.100 M112.470 280.200 C 112.373 283.527,114.285 291.532,115.272 291.933 C 115.453 292.007,115.600 292.299,115.600 292.582 C 115.600 295.183,123.051 303.011,127.664 305.256 C 134.372 308.522,132.574 308.451,202.200 308.186 C 263.269 307.954,264.376 307.932,265.789 306.949 C 266.223 306.647,267.033 306.399,267.589 306.397 C 268.145 306.396,269.140 306.037,269.800 305.600 C 270.460 305.163,271.405 304.804,271.900 304.803 C 272.395 304.801,272.800 304.623,272.800 304.408 C 272.800 304.192,273.250 303.902,273.800 303.764 C 274.350 303.626,274.800 303.365,274.800 303.184 C 274.800 303.002,275.115 302.751,275.500 302.625 C 276.187 302.400,279.600 299.416,279.600 299.041 C 279.600 298.935,280.147 298.253,280.815 297.525 C 281.483 296.796,282.132 295.795,282.258 295.300 C 282.384 294.805,282.737 294.400,283.043 294.400 C 283.363 294.400,283.600 293.995,283.600 293.449 C 283.600 292.926,283.851 292.290,284.158 292.035 C 284.465 291.780,284.831 290.961,284.971 290.215 C 285.111 289.469,285.427 288.791,285.673 288.709 C 285.919 288.627,286.176 287.489,286.243 286.180 C 286.311 284.871,286.262 284.159,286.135 284.598 C 286.007 285.037,285.565 285.827,285.152 286.352 C 284.738 286.878,284.400 287.554,284.400 287.854 C 284.400 288.154,284.130 288.400,283.800 288.400 C 283.470 288.400,283.200 288.733,283.200 289.140 C 283.200 290.070,278.316 295.200,277.430 295.200 C 277.070 295.200,276.671 295.470,276.545 295.800 C 276.418 296.130,275.993 296.400,275.600 296.400 C 275.207 296.400,274.782 296.670,274.655 297.000 C 274.529 297.330,274.100 297.600,273.702 297.600 C 273.304 297.600,272.623 297.847,272.189 298.149 C 271.755 298.451,270.770 298.824,270.000 298.979 C 269.230 299.133,268.028 299.518,267.330 299.834 C 265.656 300.592,133.700 300.505,132.761 299.746 C 132.453 299.497,131.570 299.159,130.800 298.995 C 130.030 298.832,129.045 298.451,128.611 298.149 C 128.177 297.847,127.521 297.600,127.154 297.600 C 126.786 297.600,126.382 297.330,126.255 297.000 C 126.129 296.670,125.776 296.400,125.471 296.400 C 124.829 296.400,121.802 293.776,119.140 290.910 C 117.919 289.596,115.600 285.824,115.600 285.152 C 115.600 284.785,115.330 284.382,115.000 284.255 C 114.670 284.129,114.400 283.576,114.400 283.027 C 114.400 282.447,114.074 281.854,113.623 281.612 C 113.089 281.327,112.798 280.665,112.693 279.498 C 112.566 278.096,112.528 278.218,112.470 280.200 M-0.000 382.357 C -0.000 383.666,0.186 384.386,0.560 384.529 C 0.868 384.648,1.251 385.518,1.411 386.463 C 1.570 387.409,1.964 388.584,2.285 389.074 C 2.964 390.110,2.681 390.800,1.576 390.800 C 1.015 390.800,0.800 391.077,0.800 391.800 C 0.800 392.910,1.870 393.204,2.255 392.200 C 2.645 391.186,3.392 391.516,5.646 393.700 C 8.495 396.460,9.384 397.130,10.594 397.434 C 11.227 397.593,11.600 397.968,11.600 398.447 C 11.600 399.130,11.816 399.182,13.725 398.957 C 15.389 398.762,15.991 398.848,16.497 399.354 C 17.087 399.944,23.842 400.000,94.910 400.000 L 172.677 400.000 174.938 397.774 C 179.263 393.519,186.517 393.856,97.830 394.185 C 13.455 394.498,15.142 394.534,10.602 392.336 C 6.945 390.566,1.200 384.503,1.200 382.413 C 1.200 381.386,0.787 380.400,0.357 380.400 C 0.161 380.400,-0.000 381.281,-0.000 382.357 M397.082 392.975 C 396.707 393.350,396.400 393.914,396.400 394.229 C 396.400 394.543,396.190 394.800,395.933 394.800 C 395.677 394.800,395.584 394.917,395.727 395.061 C 396.099 395.432,398.109 393.327,397.921 392.762 C 397.815 392.445,397.544 392.513,397.082 392.975 M392.667 396.667 C 392.153 397.181,392.399 397.975,393.000 397.745 C 393.330 397.618,393.600 397.264,393.600 396.957 C 393.600 396.369,393.115 396.218,392.667 396.667 " stroke="none" fill="#30466a" fill-rule="evenodd"></path><path id="path4" d="M11.600 0.400 C 11.600 0.620,11.253 0.800,10.829 0.800 C 10.404 0.800,9.787 1.070,9.457 1.400 C 9.127 1.730,8.640 2.000,8.375 2.000 C 8.111 2.000,7.567 2.377,7.168 2.837 C 6.769 3.297,6.270 3.567,6.059 3.436 C 5.840 3.301,5.765 3.543,5.884 3.999 C 6.030 4.556,5.897 4.800,5.447 4.800 C 5.091 4.800,4.800 5.070,4.800 5.400 C 4.800 5.730,4.530 6.000,4.200 6.000 C 3.198 6.000,2.000 7.524,2.000 8.800 C 2.000 9.600,1.800 10.000,1.400 10.000 C 1.070 10.000,0.800 10.345,0.800 10.767 C 0.800 11.188,0.575 11.625,0.300 11.736 C -0.076 11.889,-0.052 12.044,0.400 12.363 C 0.807 12.651,0.839 12.790,0.500 12.794 C 0.137 12.798,0.000 13.790,0.000 16.400 C 0.000 20.142,0.587 21.271,1.045 18.408 C 1.185 17.532,1.547 16.610,1.850 16.359 C 2.152 16.107,2.400 15.650,2.400 15.343 C 2.400 12.847,10.643 7.201,15.538 6.344 C 21.356 5.326,385.911 6.740,386.494 7.783 C 386.684 8.122,387.259 8.400,387.771 8.400 C 388.283 8.400,388.920 8.663,389.187 8.985 C 389.454 9.306,390.025 9.681,390.455 9.818 C 391.691 10.210,396.800 15.531,396.800 16.426 C 396.800 16.866,397.048 17.320,397.352 17.437 C 397.658 17.554,398.017 18.509,398.160 19.585 C 398.384 21.270,398.889 22.000,399.833 22.000 C 399.925 22.000,400.000 19.660,400.000 16.800 C 400.000 13.600,399.846 11.600,399.600 11.600 C 399.380 11.600,399.200 11.054,399.200 10.387 C 399.200 9.713,398.950 9.079,398.636 8.959 C 398.326 8.839,397.961 8.298,397.824 7.755 C 397.688 7.212,397.402 6.875,397.188 7.007 C 396.975 7.139,396.800 6.939,396.800 6.562 C 396.800 6.185,396.080 5.191,395.200 4.354 C 394.320 3.517,393.600 2.645,393.600 2.416 C 393.600 2.187,393.060 2.000,392.400 2.000 C 391.600 2.000,391.200 1.800,391.200 1.400 C 391.200 0.981,390.778 0.800,389.800 0.800 C 389.030 0.800,388.400 0.620,388.400 0.400 C 388.400 0.134,325.333 0.000,200.000 0.000 C 74.667 0.000,11.600 0.134,11.600 0.400 M155.330 100.537 C 153.472 101.518,151.600 103.350,151.600 104.187 C 151.600 104.488,151.405 104.798,151.166 104.878 C 150.107 105.231,149.823 116.385,150.806 119.006 C 152.060 122.349,156.353 124.948,161.199 125.299 L 162.599 125.400 162.457 154.974 C 162.324 182.704,162.270 184.612,161.593 185.574 C 161.196 186.138,159.219 189.300,157.200 192.600 C 155.181 195.900,153.185 199.088,152.765 199.684 C 152.344 200.280,152.000 200.918,152.000 201.102 C 152.000 201.287,151.724 201.789,151.387 202.219 C 150.291 203.617,148.000 207.261,148.000 207.606 C 148.000 207.791,147.759 208.184,147.464 208.479 C 147.170 208.773,146.045 210.513,144.964 212.345 C 143.884 214.177,142.730 216.090,142.400 216.595 C 141.894 217.369,140.745 219.222,138.592 222.734 C 138.367 223.100,137.692 224.161,137.092 225.092 C 136.491 226.023,136.000 226.880,136.000 226.996 C 136.000 227.113,135.404 228.061,134.675 229.104 C 133.947 230.147,133.225 231.270,133.071 231.600 C 132.917 231.930,132.478 232.676,132.096 233.257 C 131.713 233.838,130.770 235.343,130.000 236.600 C 129.230 237.857,128.330 239.297,128.000 239.800 C 126.871 241.519,124.600 245.263,124.038 246.332 C 123.729 246.919,123.354 247.490,123.204 247.600 C 123.054 247.710,122.149 249.150,121.192 250.800 C 120.235 252.450,119.215 254.038,118.926 254.329 C 118.637 254.619,118.400 255.016,118.400 255.211 C 118.400 255.405,117.984 256.177,117.476 256.925 C 116.968 257.674,116.048 259.347,115.432 260.643 C 114.815 261.939,114.147 263.318,113.947 263.708 C 112.010 267.480,112.144 275.927,114.221 281.028 C 118.399 291.290,124.226 296.771,133.489 299.154 C 138.677 300.488,262.130 300.487,267.311 299.153 C 276.155 296.874,283.487 289.969,286.388 281.186 C 286.857 279.764,287.521 277.994,287.862 277.254 C 288.592 275.668,288.509 266.913,287.755 265.961 C 287.510 265.653,287.189 264.860,287.041 264.200 C 286.690 262.637,284.356 258.035,282.375 255.000 C 281.514 253.680,280.625 252.240,280.400 251.800 C 280.175 251.360,279.273 249.920,278.395 248.600 C 277.517 247.280,276.601 245.705,276.360 245.100 C 276.119 244.495,275.801 244.000,275.653 244.000 C 275.504 244.000,274.937 243.145,274.392 242.100 C 273.846 241.055,273.261 240.139,273.090 240.063 C 272.920 239.988,272.518 239.358,272.198 238.663 C 271.533 237.219,270.822 236.076,270.100 235.288 C 269.825 234.988,269.600 234.574,269.600 234.367 C 269.600 234.161,269.004 233.139,268.275 232.096 C 267.547 231.053,266.825 229.930,266.671 229.600 C 266.517 229.270,266.078 228.524,265.696 227.943 C 265.313 227.362,264.370 225.857,263.600 224.600 C 262.830 223.343,261.887 221.838,261.504 221.257 C 261.122 220.676,260.683 219.930,260.529 219.600 C 260.375 219.270,259.687 218.190,259.000 217.200 C 258.313 216.210,257.625 215.130,257.471 214.800 C 257.317 214.470,256.878 213.724,256.496 213.143 C 255.591 211.769,253.136 207.775,252.515 206.666 C 252.248 206.190,251.848 205.530,251.627 205.200 C 249.821 202.504,248.522 200.439,248.103 199.598 C 247.463 198.314,246.730 197.176,246.100 196.488 C 245.825 196.188,245.600 195.695,245.600 195.391 C 245.600 195.088,245.371 194.696,245.092 194.520 C 244.812 194.344,244.363 193.750,244.094 193.200 C 243.464 191.910,242.674 190.656,242.325 190.392 C 242.174 190.277,241.856 189.737,241.619 189.192 C 241.382 188.646,240.836 187.660,240.406 187.000 C 238.074 183.421,238.248 186.000,238.223 154.504 C 238.204 130.795,238.296 125.572,238.733 125.404 C 239.026 125.292,239.820 125.200,240.498 125.200 C 243.993 125.200,249.600 121.740,249.600 119.583 C 249.600 119.206,249.870 118.674,250.200 118.400 C 251.856 117.026,250.577 103.600,248.791 103.600 C 248.576 103.600,248.394 103.375,248.388 103.100 C 248.381 102.825,247.540 101.970,246.518 101.200 L 244.661 99.800 200.831 99.727 L 157.000 99.655 155.330 100.537 M244.615 101.199 C 248.364 103.089,249.512 105.124,249.889 110.554 C 250.500 119.318,248.047 123.194,241.253 124.207 C 239.340 124.492,237.757 124.940,237.559 125.253 C 237.368 125.554,237.209 138.829,237.206 154.753 L 237.200 183.706 238.079 185.153 C 238.562 185.949,239.057 186.690,239.179 186.800 C 239.300 186.910,239.670 187.488,240.000 188.085 C 240.621 189.208,245.343 196.956,246.400 198.588 C 246.730 199.097,247.630 200.543,248.400 201.800 C 249.170 203.057,250.070 204.497,250.400 205.000 C 250.730 205.503,251.630 206.943,252.400 208.200 C 253.170 209.457,254.070 210.901,254.400 211.408 C 255.079 212.451,258.588 218.178,259.800 220.220 C 261.710 223.439,262.948 225.414,263.174 225.600 C 263.307 225.710,263.640 226.250,263.913 226.800 C 264.186 227.350,265.394 229.330,266.598 231.200 C 267.802 233.070,268.973 234.960,269.200 235.400 C 269.426 235.840,269.924 236.676,270.306 237.257 C 270.688 237.838,271.630 239.343,272.400 240.600 C 273.170 241.857,274.070 243.297,274.400 243.800 C 274.730 244.303,275.630 245.743,276.400 247.000 C 277.170 248.257,278.070 249.700,278.400 250.205 C 278.730 250.710,279.882 252.626,280.960 254.462 C 282.038 256.298,283.034 257.890,283.173 258.000 C 285.923 260.179,288.537 272.676,287.030 276.441 C 286.684 277.307,286.400 278.480,286.400 279.046 C 286.400 279.613,286.142 280.554,285.827 281.138 C 285.513 281.722,284.839 283.100,284.331 284.200 C 282.573 288.006,277.427 294.379,276.100 294.394 C 275.825 294.397,275.600 294.567,275.600 294.771 C 275.600 294.975,274.565 295.613,273.300 296.189 C 272.035 296.765,270.522 297.498,269.938 297.818 C 269.354 298.138,268.224 298.400,267.425 298.400 C 266.627 298.400,265.328 298.670,264.538 299.000 C 262.762 299.742,137.288 299.928,136.549 299.189 C 136.324 298.964,135.163 298.669,133.969 298.536 C 131.899 298.304,126.417 296.019,125.271 294.911 C 124.981 294.630,124.618 294.400,124.464 294.400 C 124.148 294.400,120.908 291.299,120.000 290.127 C 118.553 288.259,117.600 286.805,117.600 286.465 C 117.600 286.263,117.330 285.874,117.000 285.600 C 116.670 285.326,116.400 284.777,116.400 284.380 C 116.400 283.982,116.152 283.409,115.849 283.106 C 115.546 282.803,115.171 281.978,115.016 281.273 C 114.861 280.569,114.466 279.453,114.137 278.795 C 113.255 277.025,113.291 267.640,114.190 265.200 C 115.612 261.342,117.333 258.071,120.400 253.400 C 120.998 252.490,123.332 248.719,124.319 247.068 C 124.605 246.591,125.145 245.724,125.519 245.143 C 125.894 244.562,126.830 243.057,127.600 241.800 C 128.370 240.543,129.313 239.038,129.696 238.457 C 130.078 237.876,130.615 236.950,130.888 236.400 C 131.160 235.850,131.477 235.310,131.592 235.200 C 131.953 234.853,133.442 232.626,133.731 232.000 C 133.884 231.670,134.365 230.860,134.800 230.200 C 135.235 229.540,135.815 228.550,136.087 228.000 C 136.360 227.450,136.812 226.856,137.092 226.680 C 137.371 226.504,137.600 226.112,137.600 225.809 C 137.600 225.505,137.825 225.012,138.100 224.712 C 138.822 223.924,139.533 222.781,140.198 221.337 C 140.518 220.642,140.920 220.012,141.090 219.937 C 141.261 219.861,141.760 219.093,142.200 218.229 C 142.640 217.366,143.194 216.464,143.432 216.226 C 143.669 215.988,144.119 215.314,144.432 214.729 C 144.996 213.671,147.250 209.958,148.400 208.192 C 148.730 207.685,149.900 205.799,151.000 204.000 C 152.100 202.201,153.313 200.250,153.696 199.665 C 154.078 199.079,154.615 198.150,154.888 197.600 C 155.160 197.050,155.477 196.510,155.592 196.400 C 155.955 196.051,157.443 193.824,157.730 193.200 C 157.881 192.870,158.722 191.520,159.598 190.200 C 160.475 188.880,161.385 187.354,161.621 186.808 C 161.857 186.263,162.264 185.684,162.525 185.523 C 163.242 185.080,163.422 125.471,162.707 124.916 C 162.428 124.699,160.743 124.322,158.962 124.079 C 152.976 123.262,151.081 120.650,150.868 112.921 C 150.679 106.056,151.811 103.499,156.048 101.224 C 158.267 100.033,242.255 100.009,244.615 101.199 M188.054 124.935 C 187.739 125.315,187.573 134.655,187.485 157.035 C 187.352 190.956,187.393 190.268,185.280 193.600 C 184.791 194.370,184.170 195.495,183.898 196.100 C 183.627 196.705,183.290 197.200,183.150 197.200 C 183.010 197.200,182.394 198.190,181.782 199.400 C 181.170 200.610,180.531 201.600,180.362 201.600 C 180.192 201.600,179.934 201.977,179.788 202.438 C 179.543 203.210,178.197 205.421,176.351 208.084 C 175.938 208.680,175.600 209.426,175.600 209.741 C 175.600 210.056,175.330 210.418,175.000 210.545 C 174.670 210.671,174.400 210.945,174.400 211.153 C 174.400 211.360,173.770 212.487,173.000 213.656 C 172.230 214.825,171.600 216.011,171.600 216.291 C 171.600 216.571,171.433 216.800,171.229 216.800 C 171.025 216.800,170.609 217.295,170.303 217.900 C 169.510 219.469,168.637 220.967,168.378 221.200 C 167.548 221.949,166.509 224.749,166.912 225.152 C 167.236 225.476,176.540 225.600,200.437 225.600 C 236.798 225.600,234.792 225.742,233.419 223.260 C 233.096 222.677,232.627 221.705,232.377 221.100 C 232.127 220.495,231.801 220.000,231.653 220.000 C 231.504 220.000,230.937 219.145,230.392 218.100 C 229.846 217.055,229.175 216.056,228.900 215.880 C 228.625 215.704,228.400 215.327,228.400 215.041 C 228.400 214.756,228.040 214.107,227.600 213.600 C 227.160 213.093,226.800 212.450,226.800 212.172 C 226.800 211.894,226.665 211.607,226.500 211.533 C 226.335 211.460,225.930 210.914,225.600 210.319 C 224.969 209.183,221.426 203.383,220.400 201.808 C 220.070 201.301,219.170 199.857,218.400 198.600 C 217.630 197.343,216.693 195.838,216.318 195.257 C 215.943 194.676,215.178 193.330,214.618 192.267 L 213.600 190.334 213.600 157.996 C 213.600 129.130,213.532 125.590,212.971 125.029 C 212.103 124.160,188.770 124.073,188.054 124.935 M212.289 125.523 C 212.665 125.762,212.803 133.291,212.889 158.417 L 213.000 191.000 214.200 192.937 C 214.860 194.003,215.760 195.449,216.200 196.151 C 216.640 196.853,218.170 199.370,219.600 201.744 C 221.030 204.118,222.470 206.481,222.800 206.995 C 223.130 207.509,224.300 209.401,225.400 211.200 C 226.500 212.999,227.670 214.892,228.000 215.407 C 228.330 215.922,229.390 217.661,230.356 219.271 C 231.323 220.882,232.373 222.502,232.692 222.870 C 234.451 224.908,235.572 224.839,200.800 224.831 C 183.090 224.827,168.372 224.818,168.092 224.812 C 167.445 224.797,167.856 222.997,168.826 221.600 C 169.382 220.799,171.921 216.665,175.212 211.200 C 176.257 209.466,178.274 206.200,178.800 205.392 C 179.304 204.618,182.385 199.625,183.808 197.274 C 184.033 196.903,184.680 195.880,185.247 195.000 C 188.205 190.411,188.000 193.192,188.000 157.616 C 188.000 140.080,188.120 125.613,188.267 125.467 C 188.642 125.091,211.694 125.145,212.289 125.523 " stroke="none" fill="#94aed6" fill-rule="evenodd"></path></g></svg>